<svg width="56" height="43" viewBox="0 0 56 43" fill="none" xmlns="http://www.w3.org/2000/svg">
<rect x="0.5" width="55" height="43" fill="#292929"/>
<rect width="33" height="33" transform="translate(11.5 5)" fill="#292929"/>
<path d="M41.002 18.9618C41.1711 19.868 41.2632 20.8153 41.2632 21.804C41.2632 29.537 36.0877 35.0356 28.2709 35.0356C26.4932 35.0361 24.7328 34.6864 23.0904 34.0064C21.448 33.3263 19.9556 32.3293 18.6986 31.0723C17.4416 29.8154 16.4446 28.323 15.7646 26.6806C15.0845 25.0381 14.7348 23.2778 14.7354 21.5001C14.7348 19.7224 15.0845 17.9621 15.7646 16.3196C16.4446 14.6772 17.4416 13.1848 18.6986 11.9278C19.9556 10.6709 21.448 9.67386 23.0904 8.99382C24.7328 8.31379 26.4932 7.96406 28.2709 7.9646C31.9256 7.9646 34.9795 9.30935 37.3225 11.4929L33.5069 15.3085V15.2988C32.0865 13.9458 30.2839 13.2515 28.2709 13.2515C23.8049 13.2515 20.1749 17.0245 20.1749 21.4918C20.1749 25.9578 23.8049 29.7391 28.2709 29.7391C32.323 29.7391 35.0812 27.4222 35.6477 24.2405H28.2709V18.9618H41.0034H41.002Z" fill="white"/>
</svg>
