<svg width="18" height="17" fill="none" xmlns="http://www.w3.org/2000/svg"><path d="M9.006 0a8.5 8.5 0 0 0-3.098 16.419c-.074-.673-.142-1.707.03-2.441.154-.664.996-4.226.996-4.226s-.254-.509-.254-1.261c0-1.183.685-2.065 1.538-2.065.725 0 1.076.544 1.076 1.198 0 .729-.465 1.819-.705 2.83-.2.845.425 1.536 1.26 1.536 1.51 0 2.672-1.594 2.672-3.893 0-2.035-1.463-3.458-3.551-3.458-2.419 0-3.838 1.814-3.838 3.688 0 .731.281 1.514.632 1.94a.255.255 0 0 1 .06.245c-.065.268-.209.846-.236.963-.038.156-.124.189-.285.114-1.063-.494-1.726-2.046-1.726-3.294 0-2.68 1.949-5.142 5.617-5.142 2.948 0 5.24 2.1 5.24 4.909 0 2.929-1.847 5.287-4.41 5.287-.862 0-1.672-.447-1.949-.977l-.53 2.021c-.191.739-.71 1.664-1.056 2.229A8.5 8.5 0 1 0 9.006 0Z" fill="#000"/></svg>