<svg width="18" height="17" fill="none" xmlns="http://www.w3.org/2000/svg"><path d="M17.5 8.5a8.5 8.5 0 1 1-17 0 8.5 8.5 0 0 1 17 0ZM9.305 6.275c-.827.344-2.48 1.056-4.958 2.136-.401.16-.613.316-.632.47-.032.258.292.36.733.499l.186.058c.434.141 1.018.306 1.32.313.277.006.584-.107.923-.34 2.315-1.563 3.51-2.353 3.585-2.37.053-.013.127-.027.176.017.05.044.045.128.04.15-.032.137-1.304 1.319-1.962 1.93-.205.192-.35.327-.38.358a8.657 8.657 0 0 1-.2.197c-.404.39-.705.68.016 1.156.348.23.626.418.903.607.302.206.604.411.995.668.099.064.194.133.287.199.351.25.669.476 1.059.44.227-.021.462-.234.581-.871.282-1.506.835-4.767.963-6.11a1.518 1.518 0 0 0-.014-.336.358.358 0 0 0-.121-.23.559.559 0 0 0-.33-.099c-.318.005-.81.176-3.17 1.158Z" fill="#000"/></svg>