<svg width="18" height="17" fill="none" xmlns="http://www.w3.org/2000/svg"><path fill-rule="evenodd" clip-rule="evenodd" d="M9 17A8.5 8.5 0 1 0 9 0a8.5 8.5 0 0 0 0 17Zm.46-11.972h-.176c-.6.003-1.198.013-1.796.032l-.107.005-.054.002-.108.003-.107.005c-.698.031-1.362.082-1.668.163a1.261 1.261 0 0 0-.89.893 5.68 5.68 0 0 0-.138.88l-.006.066-.014.164-.005.065-.002.033-.004.064c-.034.516-.039.983-.04 1.118v.077c.003.427.02.854.051 1.28l.005.065.005.066c.032.36.078.717.148.98a1.261 1.261 0 0 0 .89.89c.305.084.97.133 1.667.164l.108.005.107.004.055.003.107.003a60.39 60.39 0 0 0 1.84.033h.088c.384 0 3.155-.014 3.884-.21a1.262 1.262 0 0 0 .89-.893c.07-.263.116-.62.147-.98l.006-.064.005-.066c.045-.599.05-1.173.051-1.295v-.047c0-.118-.005-.656-.046-1.23l-.005-.065-.014-.164-.006-.065a5.692 5.692 0 0 0-.138-.881 1.262 1.262 0 0 0-.89-.893c-.706-.19-3.323-.208-3.84-.21Zm-1.093 5.045V7.045l2.612 1.515-2.612 1.513Z" fill="#000"/></svg>