<svg width="24" height="24" viewBox="0 0 24 24" fill="none" xmlns="http://www.w3.org/2000/svg">
<path fill-rule="evenodd" clip-rule="evenodd" d="M8.25 12C8.25 11.0054 8.64509 10.0516 9.34835 9.34835C10.0516 8.64509 11.0054 8.25 12 8.25C12.9946 8.25 13.9484 8.64509 14.6517 9.34835C15.3549 10.0516 15.75 11.0054 15.75 12C15.75 12.9946 15.3549 13.9484 14.6517 14.6517C13.9484 15.3549 12.9946 15.75 12 15.75C11.0054 15.75 10.0516 15.3549 9.34835 14.6517C8.64509 13.9484 8.25 12.9946 8.25 12ZM12 9.75C11.4033 9.75 10.831 9.98705 10.409 10.409C9.98705 10.831 9.75 11.4033 9.75 12C9.75 12.5967 9.98705 13.169 10.409 13.591C10.831 14.0129 11.4033 14.25 12 14.25C12.5967 14.25 13.169 14.0129 13.591 13.591C14.0129 13.169 14.25 12.5967 14.25 12C14.25 11.4033 14.0129 10.831 13.591 10.409C13.169 9.98705 12.5967 9.75 12 9.75Z" fill="#292929"/>
<path fill-rule="evenodd" clip-rule="evenodd" d="M4.323 10.646C3.904 11.25 3.75 11.723 3.75 12C3.75 12.277 3.904 12.75 4.323 13.354C4.729 13.937 5.331 14.57 6.093 15.155C7.62 16.327 9.713 17.25 12 17.25C14.287 17.25 16.38 16.327 17.907 15.155C18.669 14.57 19.271 13.937 19.677 13.354C20.096 12.75 20.25 12.277 20.25 12C20.25 11.723 20.096 11.25 19.677 10.646C19.271 10.063 18.669 9.43 17.907 8.845C16.38 7.673 14.287 6.75 12 6.75C9.713 6.75 7.62 7.673 6.093 8.845C5.331 9.43 4.729 10.063 4.323 10.646ZM5.179 7.655C6.91 6.327 9.316 5.25 12 5.25C14.684 5.25 17.09 6.327 18.82 7.655C19.687 8.32 20.403 9.062 20.909 9.791C21.401 10.5 21.75 11.277 21.75 12C21.75 12.723 21.4 13.5 20.909 14.209C20.403 14.938 19.687 15.679 18.821 16.345C17.091 17.673 14.684 18.75 12 18.75C9.316 18.75 6.91 17.673 5.18 16.345C4.313 15.68 3.597 14.938 3.091 14.209C2.6 13.5 2.25 12.723 2.25 12C2.25 11.277 2.6 10.5 3.091 9.791C3.597 9.062 4.313 8.321 5.179 7.655Z" fill="#292929"/>
</svg>
